<?xml version="1.0" encoding="UTF-8" standalone="no"?>
<!-- Created with Inkscape (http://www.inkscape.org/) -->

<svg
   xmlns:dc="http://purl.org/dc/elements/1.1/"
   xmlns:cc="http://creativecommons.org/ns#"
   xmlns:rdf="http://www.w3.org/1999/02/22-rdf-syntax-ns#"
   xmlns:svg="http://www.w3.org/2000/svg"
   xmlns="http://www.w3.org/2000/svg"
   xmlns:sodipodi="http://sodipodi.sourceforge.net/DTD/sodipodi-0.dtd"
   xmlns:inkscape="http://www.inkscape.org/namespaces/inkscape"
   width="210mm"
   height="297mm"
   viewBox="0 0 210 297"
   version="1.1"
   id="svg8"
   inkscape:version="0.92.4 5da689c313, 2019-01-14"
   sodipodi:docname="logo.svg">
  <defs
     id="defs2" />
  <sodipodi:namedview
     id="base"
     pagecolor="#ffffff"
     bordercolor="#666666"
     borderopacity="1.0"
     inkscape:pageopacity="0.0"
     inkscape:pageshadow="2"
     inkscape:zoom="1.28"
     inkscape:cx="248.8959"
     inkscape:cy="800.3161"
     inkscape:document-units="mm"
     inkscape:current-layer="layer2"
     showgrid="false"
     inkscape:window-width="1366"
     inkscape:window-height="707"
     inkscape:window-x="1920"
     inkscape:window-y="32"
     inkscape:window-maximized="1" />
  <metadata
     id="metadata5">
    <rdf:RDF>
      <cc:Work
         rdf:about="">
        <dc:format>image/svg+xml</dc:format>
        <dc:type
           rdf:resource="http://purl.org/dc/dcmitype/StillImage" />
        <dc:title></dc:title>
      </cc:Work>
    </rdf:RDF>
  </metadata>
  <g
     inkscape:label="Capa 1"
     inkscape:groupmode="layer"
     id="layer1"
     sodipodi:insensitive="true">
    <path
       style="fill:#301a96;fill-opacity:1;stroke:none;stroke-width:5.20983887;stroke-linecap:square;stroke-linejoin:round;stroke-miterlimit:4;stroke-dasharray:none;stroke-dashoffset:0;stroke-opacity:1;paint-order:markers fill stroke"
       id="path4532"
       sodipodi:type="arc"
       sodipodi:cx="101.8672"
       sodipodi:cy="88.433655"
       sodipodi:rx="44.767647"
       sodipodi:ry="40.892239"
       sodipodi:start="0"
       sodipodi:end="6.2830707"
       d="M 146.63485,88.433655 A 44.767647,40.892239 0 0 1 101.86849,129.32589 44.767647,40.892239 0 0 1 57.099556,88.435998 44.767647,40.892239 0 0 1 101.86335,47.541416 a 44.767647,40.892239 0 0 1 44.7715,40.887552"
       sodipodi:open="true" />
  </g>
  <g
     inkscape:groupmode="layer"
     id="layer2"
     inkscape:label="Capa 2">
    <path
       style="fill:none;fill-opacity:1;stroke:#ffffff;stroke-width:3.68985724;stroke-linecap:square;stroke-linejoin:round;stroke-miterlimit:4;stroke-dasharray:none;stroke-dashoffset:0;stroke-opacity:1;paint-order:markers fill stroke"
       id="path4577"
       sodipodi:type="arc"
       sodipodi:cx="101.89362"
       sodipodi:cy="88.165237"
       sodipodi:rx="35.103535"
       sodipodi:ry="33.929504"
       sodipodi:start="0"
       sodipodi:end="6.2830631"
       sodipodi:open="true"
       d="M 136.99716,88.165237 A 35.103535,33.929504 0 0 1 101.8947,122.09474 35.103535,33.929504 0 0 1 66.790089,88.167311 35.103535,33.929504 0 0 1 101.89041,54.235733 35.103535,33.929504 0 0 1 136.99716,88.161091" />
    <path
       style="fill:none;fill-opacity:1;stroke:#ffffff;stroke-width:3.69;stroke-linecap:square;stroke-linejoin:round;stroke-miterlimit:4;stroke-dasharray:none;stroke-dashoffset:0;stroke-opacity:1;paint-order:markers fill stroke"
       id="path4577-3"
       sodipodi:type="arc"
       sodipodi:cx="101.80249"
       sodipodi:cy="87.655029"
       sodipodi:rx="24.40062"
       sodipodi:ry="23.584545"
       sodipodi:start="0"
       sodipodi:end="6.2830631"
       sodipodi:open="true"
       d="M 126.20311,87.655029 A 24.40062,23.584545 0 0 1 101.80324,111.23957 24.40062,23.584545 0 0 1 77.401871,87.65647 24.40062,23.584545 0 0 1 101.80025,64.070484 24.40062,23.584545 0 0 1 126.20311,87.652147" />
    <path
       style="fill:none;fill-opacity:1;stroke:#ffffff;stroke-width:3.69;stroke-linecap:square;stroke-linejoin:round;stroke-miterlimit:4;stroke-dasharray:none;stroke-dashoffset:0;stroke-opacity:1;paint-order:markers fill stroke"
       id="path4577-3-6"
       sodipodi:type="arc"
       sodipodi:cx="101.69917"
       sodipodi:cy="87.193687"
       sodipodi:rx="14.563455"
       sodipodi:ry="14.78088"
       sodipodi:start="0"
       sodipodi:end="6.2830631"
       sodipodi:open="true"
       d="M 116.26263,87.193687 A 14.563455,14.78088 0 0 1 101.69962,101.97457 14.563455,14.78088 0 0 1 87.135718,87.194591 14.563455,14.78088 0 0 1 101.69784,72.412808 14.563455,14.78088 0 0 1 116.26263,87.191881" />
    <path
       style="fill:none;fill-opacity:1;stroke:#ffffff;stroke-width:2.01538658;stroke-linecap:square;stroke-linejoin:round;stroke-miterlimit:4;stroke-dasharray:none;stroke-dashoffset:0;stroke-opacity:1;paint-order:markers fill stroke"
       id="path4577-3-6-7"
       sodipodi:type="arc"
       sodipodi:cx="108.66808"
       sodipodi:cy="77.690002"
       sodipodi:rx="7.9541988"
       sodipodi:ry="8.0729504"
       sodipodi:start="0"
       sodipodi:end="6.2830631"
       sodipodi:open="true"
       d="m 116.62228,77.690002 a 7.9541988,8.0729504 0 0 1 -7.95395,8.072951 7.9541988,8.0729504 0 0 1 -7.95445,-8.072457 7.9541988,8.0729504 0 0 1 7.95347,-8.073444 7.9541988,8.0729504 0 0 1 7.95493,8.071964"
       transform="rotate(5.0254606)" />
  </g>
</svg>
